<?xml version="1.0" encoding="UTF-8"?>
<svg width="1200px" height="600px" viewBox="0 0 1200 600" version="1.1" xmlns="http://www.w3.org/2000/svg" xmlns:xlink="http://www.w3.org/1999/xlink">
    <title>logo1</title>
    <defs>
        <polygon id="path-1" points="0 434 966 434 966 0 0 0"></polygon>
    </defs>
    <g id="0530-logo" stroke="none" stroke-width="1" fill="none" fill-rule="evenodd">
        <g id="logo1" transform="translate(117.000000, 83.000000)">
            <path d="M107.387031,76.3040154 L107.387031,45.7981161 L178.042242,45.7981161 L178.042242,2.00925926 L209.935118,2.00925926 L209.935118,45.7981161 L233.241451,45.7981161 L233.241451,76.3040154 L209.935118,76.3040154 L209.935118,189.468556 C211.077597,216.529642 198.730302,229.894753 172.889867,229.568391 L166.020408,229.568391 C152.282612,229.894753 141.24277,230.060185 132.902005,230.060185 C131.264603,220.546153 128.892109,209.722169 125.786767,197.587107 C137.562823,198.244334 148.76315,198.570697 159.396728,198.570697 C172.480236,199.227923 178.694285,192.831216 178.042242,179.381701 L178.042242,76.3040154 L107.387031,76.3040154 Z M139.770342,161.422756 C130.118758,143.71027 119.077794,125.25953 106.650817,106.07166 L131.183799,91.555277 C143.45029,109.106832 155.472124,126.901471 167.247057,144.940319 L139.770342,161.422756 Z M38.694683,175.691553 L69.1162534,175.691553 L69.1162534,124.27594 L38.694683,124.27594 L38.694683,175.691553 Z M38.694683,96.4765998 L69.1162534,96.4765998 L69.1162534,45.3063214 L38.694683,45.3063214 L38.694683,96.4765998 Z M9.00932642,222.926349 L9.00932642,17.2605208 L98.8004877,17.2605208 L98.8004877,219.974456 L69.1151311,219.974456 L69.1151311,203.737354 L38.694683,203.737354 L38.694683,222.926349 L9.00932642,222.926349 Z" id="Fill-1" fill="#5F0085"></path>
            <path d="M252.855184,78.2081641 L252.855184,26.3297284 L347.218124,26.3297284 L340.128043,4.20007312 L377.042315,1.00462963 C379.158157,6.90512121 381.603899,15.3486954 384.376188,26.3297284 L470.916555,26.3297284 L470.916555,78.2081641 L438.891531,78.2081641 L438.891531,56.0796335 L285.123999,56.0796335 L285.123999,78.2081641 L252.855184,78.2081641 Z M279.74605,151.724735 L279.74605,125.661793 L260.189056,135.251498 C254.482324,123.287425 249.837985,114.106008 246.254922,107.712871 C275.261629,95.7499229 303.539199,80.9120874 331.083157,63.2106127 L349.662748,87.5515464 C327.985441,100.175854 306.553042,111.893605 285.368909,122.711548 L440.114961,122.711548 C426.424618,115.335371 405.645313,104.355463 377.775926,89.7639495 C376.308704,88.9462489 375.166911,88.289389 374.3539,87.7978689 L390.97645,63.7021329 C427.482539,81.8962525 456.653637,96.649731 478.495337,107.959194 L463.093981,135.496696 L444.025689,124.925076 L444.025689,151.724735 L378.753329,151.724735 L378.753329,193.276748 L471.160346,193.276748 L471.160346,223.027778 L252.855184,223.027778 L252.855184,193.276748 L345.262201,193.276748 L345.262201,151.724735 L279.74605,151.724735 Z" id="Fill-3" fill="#5F0085"></path>
            <mask id="mask-2" fill="white">
                <use xlink:href="#path-1"></use>
            </mask>
            <g id="Clip-6"></g>
            <path d="M618.117434,194.86671 L674.344637,194.86671 L674.344637,161.290394 L618.117434,161.290394 L618.117434,194.86671 Z M618.117434,133.841184 L674.344637,133.841184 L674.344637,100.509279 L618.117434,100.509279 L618.117434,133.841184 Z M618.117434,73.305601 L674.344637,73.305601 L674.344637,39.7281635 L618.117434,39.7281635 L618.117434,73.305601 Z M496.375513,218.88519 L491.730078,188.24966 C513.242891,185.963627 540.947753,182.532897 574.8469,177.956346 C574.359319,183.83792 574.030538,189.475081 573.87062,194.86671 L586.337473,194.86671 L586.337473,11.7878876 L705.87969,11.7878876 L705.87969,194.86671 L722.748187,194.86671 L722.748187,224.032407 L568.00288,224.032407 L568.00288,208.346343 C552.846506,210.307242 528.969599,213.818696 496.375513,218.88519 L496.375513,218.88519 Z M502.731952,167.4175 L494.174691,139.96829 C499.065034,137.027503 505.255964,130.900397 512.75531,121.585851 C518.293152,114.562943 523.914865,106.720471 529.622689,98.0584364 C516.90981,98.8779998 506.398871,100.019334 498.086518,101.490288 L490.507772,74.5310222 C494.419599,71.4276683 499.308824,64.8106181 505.176565,54.6776293 C515.279322,38.012798 524.244765,20.1214244 532.067301,1.00462963 L564.335961,11.0535319 C547.873409,37.8513519 534.511914,58.1094813 524.244765,71.833526 C531.90291,71.833526 539.401138,71.5891144 546.733857,71.0991702 C548.526498,68.1583835 551.135501,63.5011103 554.557512,57.1295928 C556.184644,54.0273601 557.408068,51.7379638 558.22443,50.2670099 L586.092564,62.0312776 C568.163915,89.8101073 550.890593,114.478856 534.268123,136.046493 C549.095715,134.576661 562.296175,133.104585 573.87062,131.634753 C572.892105,141.438122 572.403406,150.506015 572.403406,158.839552 C539.969237,161.455204 516.745419,164.315267 502.731952,167.4175 L502.731952,167.4175 Z" id="Fill-5" fill="#5F0085" mask="url(#mask-2)"></path>
            <path d="M840.900018,40.8523098 C840.411668,40.0327419 839.678585,38.80339 838.701886,37.1608767 C831.04474,23.2180897 825.021388,12.6357563 820.624005,5.41387671 L854.092166,0 C861.256492,11.1587328 868.340357,22.8871103 875.344879,35.193013 L840.900018,40.8523098 Z M778.362196,45.2822547 C773.96593,37.7372762 766.797135,26.0055213 756.864749,10.0903674 L790.332911,2.46095539 C798.31078,13.7818005 805.723191,24.8560998 812.56344,35.6838532 L778.362196,45.2822547 Z M743.918452,102.376195 L743.918452,45.5288005 L881.452045,45.5288005 C892.201327,29.7780106 901.644245,15.1777679 909.78974,1.7235694 L944.966567,10.0903674 C936.496995,22.2341578 928.111237,34.0458431 919.804821,45.5288005 L959.624882,45.5288005 L959.624882,102.376195 L928.111237,102.376195 L928.111237,74.0752076 L775.675713,74.0752076 L775.675713,102.376195 L743.918452,102.376195 Z M739.765803,173.498481 L739.765803,144.213562 L842.854535,144.213562 L842.854535,141.012969 L875.589613,119.356337 L777.874963,119.356337 L777.874963,91.3018954 L925.180021,91.3018954 L925.180021,118.618951 L884.138527,144.213562 L964.998964,144.213562 L964.998964,173.498481 L875.833229,173.498481 L875.833229,197.124103 C876.646772,220.256633 865.409141,231.657409 842.121451,231.330933 C825.509737,231.822899 811.666084,232.069444 800.593843,232.069444 C798.79913,221.241691 796.68481,210.820344 794.241944,200.815536 C804.173212,201.472992 814.842033,201.799468 826.243938,201.799468 C838.293996,202.622413 843.832352,197.369523 842.854535,186.048678 L842.854535,173.498481 L739.765803,173.498481 Z" id="Fill-7" fill="#5F0085" mask="url(#mask-2)"></path>
            <path d="M132.136788,377.453102 C132.136788,393.048337 125.622769,406.369665 112.603711,417.421575 C99.5790419,428.473484 83.9853532,434 65.8248898,434 C50.0583618,434 36.0942999,429.718185 23.9304595,421.14782 C11.5937799,412.409101 3.96753003,401.445858 1.055077,388.24799 L-1.00103627,378.738208 L30.3558135,364.345023 L33.4399834,379.25225 C34.8103515,385.9348 38.3232524,390.906869 43.9786863,394.159477 C49.9741869,397.931739 57.1705833,399.813942 65.5678756,399.813942 C74.4758293,399.813942 82.0571858,397.629824 88.3141899,393.260464 C94.567827,388.891104 97.6957679,383.62161 97.6957679,377.453102 L97.6957679,376.425017 C97.3512118,368.544906 93.4107021,363.148584 85.8731166,360.232685 C79.5319375,357.661351 73.0224086,355.951992 66.3389181,355.092262 C57.2547583,353.8947 48.347927,351.409789 39.6094456,347.637526 C28.9820784,342.842791 20.6734504,336.372368 14.6779498,328.231868 C8.67795984,320.095858 5.6824542,311.1394 5.6824542,301.372597 C5.6824542,285.950205 11.4647116,273.058742 23.0314711,262.690352 C34.5971083,252.324206 48.8619553,247.138889 65.8248898,247.138889 C80.7328334,247.138889 94.0100277,251.16705 105.664329,259.220005 C117.141302,266.93064 124.594713,276.954465 128.024561,289.29148 L130.594703,298.545364 L98.7238245,313.196692 L95.6396546,299.059406 C94.4387588,293.749506 91.0975747,289.549624 85.6161024,286.464247 C79.9617909,283.038795 73.3624754,281.323824 65.8248898,281.323824 C58.114465,281.323824 51.817057,283.167867 46.9337879,286.851463 C42.0505189,290.537303 39.6094456,295.46111 39.6094456,301.629618 C39.6094456,307.798125 44.2357004,312.938548 53.4882102,317.052009 C59.1425217,319.2799 65.4792114,320.907326 72.5083803,321.935411 C82.6161074,323.476416 92.0414564,326.220593 100.779938,330.158965 C120.996514,339.243372 131.451042,355.006962 132.136788,377.453102" id="Fill-8" fill="#5F0085" mask="url(#mask-2)"></path>
            <polygon id="Fill-9" fill="#5F0085" mask="url(#mask-2)" points="136.140933 284.461942 136.140933 250.152778 274.283938 250.152778 274.283938 284.461942 222.416681 284.461942 222.416681 430.986111 188.00819 430.986111 188.00819 284.461942"></polygon>
            <path d="M409.672463,382.065374 C421.125637,370.467447 426.856143,356.593829 426.856143,340.440016 C426.856143,324.29183 421.125637,310.457603 409.672463,298.944086 C398.21593,287.433946 384.410975,281.674937 368.253119,281.674937 C352.096383,281.674937 338.331745,287.433946 326.962563,298.944086 C315.590022,310.457603 309.907671,324.29183 309.907671,340.440016 C309.907671,356.593829 315.590022,370.467447 326.962563,382.065374 C338.331745,393.664426 352.096383,399.462826 368.253119,399.462826 C384.410975,399.462826 398.21593,393.664426 409.672463,382.065374 M368.381907,247.138889 C385.135547,247.138889 400.651703,251.306489 414.929254,259.639439 C429.203445,267.975765 440.53231,279.31596 448.91137,293.660024 C457.28707,308.009715 461.47772,323.603045 461.47772,340.440016 C461.47772,357.451434 457.330746,373.132551 449.040158,387.478865 C440.74509,401.826305 429.420705,413.167625 415.058042,421.49945 C400.696499,429.836901 385.091871,434 368.253119,434 C351.411007,434 335.851176,429.836901 321.576984,421.49945 C307.298314,413.167625 296.015364,401.826305 287.723656,387.478865 C279.428588,373.132551 275.284974,357.451434 275.284974,340.440016 C275.284974,323.429724 279.428588,307.751983 287.723656,293.403418 C296.015364,279.058229 307.298314,267.757425 321.576984,259.510011 C335.851176,251.261471 351.454683,247.138889 368.381907,247.138889" id="Fill-10" fill="#5F0085" mask="url(#mask-2)"></path>
            <path d="M601.002704,298.375 L603.06006,298.375 C607.857562,298.375 613.08967,299.753948 618.748522,302.503959 C624.406251,305.256222 628.778132,308.525591 631.864166,312.30756 C634.777256,316.266403 637.350074,321.426193 639.579251,327.78693 C641.63773,333.978678 642.665285,339.569953 642.665285,344.556248 L642.665285,345.847322 L642.665285,430.728122 L609.232128,430.728122 L609.232128,344.299385 C608.717789,340.8599 607.174772,337.937521 604.6042,335.526615 C602.200957,332.94672 599.286743,331.487784 595.859314,331.140794 L594.830636,331.140794 C590.884376,331.140794 587.62989,332.519742 585.058195,335.269752 C582.140613,337.848521 580.597596,341.033395 580.429145,344.815364 L580.429145,430.986111 L546.737695,430.986111 L546.737695,344.815364 C546.737695,341.202384 545.364253,337.937521 542.622983,335.010636 C539.879467,332.261752 536.536264,330.883931 532.593373,330.883931 L532.079034,330.883931 C528.132773,331.056299 524.878288,332.519742 522.306593,335.269752 C519.561954,337.848521 518.191881,341.119016 518.191881,345.072227 L518.191881,345.331343 L518.191881,430.986111 L484.501554,430.986111 L484.501554,302.244843 L517.934712,302.244843 L517.934712,310.501633 C521.189197,307.404633 525.476853,304.655749 530.793186,302.244843 C536.277971,300.013064 541.249541,298.807611 545.709017,298.634116 C549.478964,298.807611 553.76662,299.922937 558.568615,301.98798 C563.024722,304.050769 566.625095,306.547296 569.369733,309.469675 C573.65402,306.031317 578.454891,303.277927 583.772348,301.212885 C588.228455,299.664948 593.97041,298.72199 601.002704,298.375" id="Fill-11" fill="#5F0085" mask="url(#mask-2)"></path>
            <polygon id="Fill-12" fill="#5F0085" mask="url(#mask-2)" points="667.691192 430.986111 700.725389 430.986111 700.725389 302.393519 667.691192 302.393519"></polygon>
            <path d="M788.231114,332.152053 L787.975497,332.152053 C778.601402,332.152053 770.63264,335.503862 764.074792,342.207481 C757.512479,348.912226 754.232997,356.948913 754.232997,366.316416 C754.232997,375.687296 757.512479,383.720605 764.074792,390.424224 C770.63264,397.127843 778.601402,400.479653 787.975497,400.479653 C793.256379,400.479653 798.751576,398.848221 804.463322,395.580854 C810.170603,392.317991 814.388834,388.361572 817.116899,383.720605 L821.46238,376.501323 L848.55885,389.392898 L851.626249,390.682056 L845.747068,400.73861 C840.290939,409.851659 831.942659,417.671047 820.695531,424.201277 C809.448403,430.736011 798.539493,434 787.975497,434 C769.398091,434 753.549865,427.383075 740.428588,414.145848 C727.305078,400.910873 720.746114,384.92532 720.746114,366.186937 C720.746114,347.453058 727.305078,331.467505 740.428588,318.229152 C753.549865,304.995302 769.398091,298.375 787.975497,298.375 C798.539493,298.375 809.448403,301.598457 820.695531,308.044244 C831.942659,314.491158 840.290939,322.270013 845.747068,331.379684 L851.881865,341.691818 L821.46238,356.131508 L817.116899,348.912226 C814.560734,344.271259 810.42622,340.318218 804.718939,337.051977 C799.007193,333.787988 793.511995,332.152053 788.231114,332.152053" id="Fill-13" fill="#5F0085" mask="url(#mask-2)"></path>
            <path d="M955.989637,391.434617 L955.989637,392.460262 C955.989637,403.91479 951.276051,413.702085 941.856734,421.821027 C932.43405,429.941089 921.044473,434 907.683516,434 C896.031388,434 885.753728,430.839088 876.849416,424.512785 C867.939493,418.189841 862.372053,410.069779 860.147097,400.152599 L859.890155,399.126954 L885.842368,387.075627 L887.384016,393.485907 C888.411782,397.420532 890.724256,400.497466 894.321437,402.717831 C898.25971,405.280823 902.885779,406.563999 908.196277,406.563999 C913.850112,406.563999 918.732,405.196846 922.843064,402.4603 C926.954127,399.728233 929.009659,396.394887 929.009659,392.460262 L929.009659,391.94744 C929.009659,387.164083 926.440244,383.913595 921.301415,382.202694 C917.017561,380.497391 912.564282,379.299313 907.939335,378.614056 C901.258857,377.588411 894.74668,375.793533 888.411782,373.228301 C880.703538,369.639664 874.664852,364.855187 870.296847,358.869273 C865.928841,352.887837 863.744278,346.221145 863.744278,338.869197 C863.744278,327.585984 867.939493,318.187225 876.334411,310.662843 C884.725962,303.14294 895.261685,299.37963 907.939335,299.37963 C918.732,299.37963 928.407137,302.288609 936.974845,308.098731 C945.539188,313.570703 951.107749,320.835315 953.677164,329.893685 L954.191047,331.689683 L929.009659,342.970657 L927.211069,337.586021 C926.010513,334.168698 923.954981,331.520608 921.044473,329.637274 C917.274502,327.585984 912.906497,326.560339 907.939335,326.560339 C903.14272,326.560339 899.203325,327.714749 896.120027,330.02245 C893.036729,332.329032 891.49508,335.366777 891.49508,339.124489 C891.49508,342.374977 894.321437,345.366814 899.974149,348.098882 C904.254637,349.809783 908.622643,350.919405 913.079287,351.432227 C919.928068,352.457872 926.697186,354.426304 933.377665,357.330805 C940.573148,360.40774 946.096829,365.06681 949.950951,371.305777 C953.805074,377.548102 955.816847,384.255103 955.989637,391.434617" id="Fill-14" fill="#5F0085" mask="url(#mask-2)"></path>
            <path d="M703.728497,272.756944 C703.728497,283.576162 694.988558,292.347222 684.207729,292.347222 C673.428022,292.347222 664.688083,283.576162 664.688083,272.756944 C664.688083,261.937727 673.428022,253.166667 684.207729,253.166667 C694.988558,253.166667 703.728497,261.937727 703.728497,272.756944" id="Fill-15" fill="#5F0085" mask="url(#mask-2)"></path>
        </g>
    </g>
</svg>